<svg width="1680" height="3145" viewBox="0 0 1680 3145" fill="none" xmlns="http://www.w3.org/2000/svg">
<g clip-path="url(#clip0_6_2)">
<rect width="1680" height="3145" fill="black"/>
<g opacity="0.3">
<path d="M319 320L1362 320" stroke="#5BD9B8" stroke-width="0.75" stroke-miterlimit="10"/>
<path d="M319 274L1362 274" stroke="#5BD9B8" stroke-width="0.75" stroke-miterlimit="10"/>
<path d="M319 229L1362 229" stroke="#5BD9B8" stroke-width="0.75" stroke-miterlimit="10"/>
<path d="M319 183L1362 183" stroke="#5BD9B8" stroke-width="0.75" stroke-miterlimit="10"/>
<path d="M319 137L1362 137" stroke="#5BD9B8" stroke-width="0.75" stroke-miterlimit="10"/>
<path d="M319 91.9996L1362 91.9996" stroke="#5BD9B8" stroke-width="0.75" stroke-miterlimit="10"/>
<path d="M319 45.9996L1362 45.9996" stroke="#5BD9B8" stroke-width="0.75" stroke-miterlimit="10"/>
<path d="M319 0.350662L1367 0.350708" stroke="#5BD9B8" stroke-width="0.75" stroke-miterlimit="10"/>
<path d="M362.331 -125.835L362.331 353" stroke="#5BD9B8" stroke-width="0.75" stroke-miterlimit="10"/>
<path d="M319 -125.835L319 353" stroke="#5BD9B8" stroke-width="0.75" stroke-miterlimit="10"/>
<path d="M405.662 -125.835L405.662 353" stroke="#5BD9B8" stroke-width="0.75" stroke-miterlimit="10"/>
<path d="M450 -125.835L450 353" stroke="#5BD9B8" stroke-width="0.75" stroke-miterlimit="10"/>
<path d="M493.331 -125.835L493.331 353" stroke="#5BD9B8" stroke-width="0.75" stroke-miterlimit="10"/>
<path d="M536.662 -125.835L536.662 353" stroke="#5BD9B8" stroke-width="0.75" stroke-miterlimit="10"/>
<path d="M579.992 -125.835L579.992 353" stroke="#5BD9B8" stroke-width="0.75" stroke-miterlimit="10"/>
<path d="M623.324 -125.835L623.324 353" stroke="#5BD9B8" stroke-width="0.75" stroke-miterlimit="10"/>
<path d="M666.654 -125.835L666.654 353" stroke="#5BD9B8" stroke-width="0.75" stroke-miterlimit="10"/>
<path d="M709.984 -125.835L709.984 353" stroke="#5BD9B8" stroke-width="0.75" stroke-miterlimit="10"/>
<path d="M753.316 -125.835L753.316 353" stroke="#5BD9B8" stroke-width="0.75" stroke-miterlimit="10"/>
<path d="M797.654 -125.835L797.654 353" stroke="#5BD9B8" stroke-width="0.75" stroke-miterlimit="10"/>
<path d="M840.984 -125.835L840.984 353" stroke="#5BD9B8" stroke-width="0.75" stroke-miterlimit="10"/>
<path d="M884.316 -125.835L884.316 353" stroke="#5BD9B8" stroke-width="0.75" stroke-miterlimit="10"/>
<path d="M927.646 -125.835L927.646 353" stroke="#5BD9B8" stroke-width="0.75" stroke-miterlimit="10"/>
<path d="M970.977 -125.835L970.976 353" stroke="#5BD9B8" stroke-width="0.75" stroke-miterlimit="10"/>
<path d="M1014.31 -125.835L1014.31 353" stroke="#5BD9B8" stroke-width="0.75" stroke-miterlimit="10"/>
<path d="M1057.64 -125.835L1057.64 353" stroke="#5BD9B8" stroke-width="0.75" stroke-miterlimit="10"/>
<path d="M1188.64 -125.835L1188.64 353" stroke="#5BD9B8" stroke-width="0.75" stroke-miterlimit="10"/>
<path d="M1318.63 -125.835L1318.63 353" stroke="#5BD9B8" stroke-width="0.75" stroke-miterlimit="10"/>
<path d="M1275.3 -125.835L1275.3 353" stroke="#5BD9B8" stroke-width="0.75" stroke-miterlimit="10"/>
<path d="M1231.97 -125.835L1231.97 353" stroke="#5BD9B8" stroke-width="0.75" stroke-miterlimit="10"/>
<path d="M1145.31 -125.835L1145.31 353" stroke="#5BD9B8" stroke-width="0.75" stroke-miterlimit="10"/>
<path d="M1101.98 -125.835L1101.98 353" stroke="#5BD9B8" stroke-width="0.75" stroke-miterlimit="10"/>
<path d="M1361.96 -125.835L1361.96 353" stroke="#5BD9B8" stroke-width="0.75" stroke-miterlimit="10"/>
</g>
<g opacity="0.4">
<path d="M1658.22 3145V1186" stroke="#126D56" stroke-width="0.75" stroke-miterlimit="10"/>
<path d="M1572.43 3145V1186" stroke="#126D56" stroke-width="0.75" stroke-miterlimit="10"/>
<path d="M1486.64 3145V1186" stroke="#126D56" stroke-width="0.75" stroke-miterlimit="10"/>
<path d="M1401.24 3145V1186" stroke="#126D56" stroke-width="0.75" stroke-miterlimit="10"/>
<path d="M1315.46 3145V1186" stroke="#126D56" stroke-width="0.75" stroke-miterlimit="10"/>
<path d="M1229.66 3145V1186" stroke="#126D56" stroke-width="0.75" stroke-miterlimit="10"/>
<path d="M1143.87 3145V1186" stroke="#126D56" stroke-width="0.75" stroke-miterlimit="10"/>
<path d="M1058.47 3145V1186" stroke="#126D56" stroke-width="0.75" stroke-miterlimit="10"/>
<path d="M972.684 3145V1186" stroke="#126D56" stroke-width="0.75" stroke-miterlimit="10"/>
<path d="M886.896 3145V1186" stroke="#126D56" stroke-width="0.75" stroke-miterlimit="10"/>
<path d="M801.104 3145V1186" stroke="#126D56" stroke-width="0.75" stroke-miterlimit="10"/>
<path d="M715.711 3145V1186" stroke="#126D56" stroke-width="0.75" stroke-miterlimit="10"/>
<path d="M629.918 3145V1186" stroke="#126D56" stroke-width="0.75" stroke-miterlimit="10"/>
<path d="M544.133 3145V1186" stroke="#126D56" stroke-width="0.75" stroke-miterlimit="10"/>
<path d="M458.34 3145V1186" stroke="#126D56" stroke-width="0.75" stroke-miterlimit="10"/>
<path d="M201.359 3145V1186" stroke="#126D56" stroke-width="0.75" stroke-miterlimit="10"/>
<path d="M30.1738 3145V1186" stroke="#126D56" stroke-width="0.75" stroke-miterlimit="10"/>
<path d="M115.575 3145V1186" stroke="#126D56" stroke-width="0.75" stroke-miterlimit="10"/>
<path d="M287.153 3145V1186" stroke="#126D56" stroke-width="0.75" stroke-miterlimit="10"/>
<path d="M372.946 3145V1186" stroke="#126D56" stroke-width="0.75" stroke-miterlimit="10"/>
<path d="M-631.743 3063.54H2319.74" stroke="#126D56" stroke-width="0.75" stroke-miterlimit="10"/>
<path d="M-631.743 2982.47H2319.74" stroke="#126D56" stroke-width="0.75" stroke-miterlimit="10"/>
<path d="M-631.743 2901.01H2319.74" stroke="#126D56" stroke-width="0.75" stroke-miterlimit="10"/>
<path d="M-631.743 2819.94H2319.74" stroke="#126D56" stroke-width="0.75" stroke-miterlimit="10"/>
<path d="M-631.743 2738.48H2319.74" stroke="#126D56" stroke-width="0.75" stroke-miterlimit="10"/>
<path d="M-631.743 2657.41H2319.74" stroke="#126D56" stroke-width="0.75" stroke-miterlimit="10"/>
<path d="M-631.743 2575.95H2319.74" stroke="#126D56" stroke-width="0.75" stroke-miterlimit="10"/>
<path d="M-631.743 2494.89H2319.74" stroke="#126D56" stroke-width="0.75" stroke-miterlimit="10"/>
<path d="M-631.743 2413.42H2319.74" stroke="#126D56" stroke-width="0.75" stroke-miterlimit="10"/>
<path d="M-631.743 2332.36H2319.74" stroke="#126D56" stroke-width="0.75" stroke-miterlimit="10"/>
<path d="M-631.743 2250.9H2319.74" stroke="#126D56" stroke-width="0.75" stroke-miterlimit="10"/>
<path d="M-631.743 2169.83H2319.74" stroke="#126D56" stroke-width="0.75" stroke-miterlimit="10"/>
<path d="M-631.743 2088.76H2319.74" stroke="#126D56" stroke-width="0.75" stroke-miterlimit="10"/>
<path d="M-631.743 2007.3H2319.74" stroke="#126D56" stroke-width="0.75" stroke-miterlimit="10"/>
<path d="M-631.743 1926.23H2319.74" stroke="#126D56" stroke-width="0.75" stroke-miterlimit="10"/>
<path d="M-631.743 1844.77H2319.74" stroke="#126D56" stroke-width="0.75" stroke-miterlimit="10"/>
<path d="M-631.743 1763.7H2319.74" stroke="#126D56" stroke-width="0.75" stroke-miterlimit="10"/>
<path d="M-631.743 1519.71H2319.74" stroke="#126D56" stroke-width="0.75" stroke-miterlimit="10"/>
<path d="M-631.743 1276.12H2319.74" stroke="#126D56" stroke-width="0.75" stroke-miterlimit="10"/>
<path d="M-631.743 1357.19H2319.74" stroke="#126D56" stroke-width="0.75" stroke-miterlimit="10"/>
<path d="M-631.743 1438.65H2319.74" stroke="#126D56" stroke-width="0.75" stroke-miterlimit="10"/>
<path d="M-631.743 1601.18H2319.74" stroke="#126D56" stroke-width="0.75" stroke-miterlimit="10"/>
<path d="M-631.743 1682.24H2319.74" stroke="#126D56" stroke-width="0.75" stroke-miterlimit="10"/>
</g>
<g opacity="0.2">
<path d="M319.225 353.162L-1873.35 1186" stroke="#5BD9B8" stroke-width="2" stroke-miterlimit="10"/>
<path d="M368.967 353.162L-1614.89 1186" stroke="#5BD9B8" stroke-width="2" stroke-miterlimit="10"/>
<path d="M418.568 353.162L-1356.44 1186" stroke="#5BD9B8" stroke-width="2" stroke-miterlimit="10"/>
<path d="M468.167 353.162L-1097.98 1186" stroke="#5BD9B8" stroke-width="2" stroke-miterlimit="10"/>
<path d="M517.768 353.162L-839.521 1186" stroke="#5BD9B8" stroke-width="2" stroke-miterlimit="10"/>
<path d="M567.508 353.162L-581.065 1186" stroke="#5BD9B8" stroke-width="2" stroke-miterlimit="10"/>
<path d="M617.109 353.162L-322.607 1186" stroke="#5BD9B8" stroke-width="2" stroke-miterlimit="10"/>
<path d="M666.709 353.162L-64.1494 1186" stroke="#5BD9B8" stroke-width="2" stroke-miterlimit="10"/>
<path d="M716.31 353.162L194.309 1186" stroke="#5BD9B8" stroke-width="2" stroke-miterlimit="10"/>
<path d="M765.908 353.162L452.764 1186" stroke="#5BD9B8" stroke-width="2" stroke-miterlimit="10"/>
<path d="M914.85 353.162L1228.14 1186" stroke="#5BD9B8" stroke-width="2" stroke-miterlimit="10"/>
<path d="M1014.19 353.162L1745.05 1186" stroke="#5BD9B8" stroke-width="2" stroke-miterlimit="10"/>
<path d="M1113.39 353.162L2261.96 1186" stroke="#5BD9B8" stroke-width="2" stroke-miterlimit="10"/>
<path d="M1063.79 353.162L2003.51 1186" stroke="#5BD9B8" stroke-width="2" stroke-miterlimit="10"/>
<path d="M964.453 353.162L1486.6 1186" stroke="#5BD9B8" stroke-width="2" stroke-miterlimit="10"/>
<path d="M865.25 353.162L969.679 1186" stroke="#5BD9B8" stroke-width="2" stroke-miterlimit="10"/>
<path d="M815.651 353.162L711.223 1186" stroke="#5BD9B8" stroke-width="2" stroke-miterlimit="10"/>
<path d="M1162.99 353.162L2520.42 1186" stroke="#5BD9B8" stroke-width="2" stroke-miterlimit="10"/>
<path d="M1212.59 353.162L2778.88 1186" stroke="#5BD9B8" stroke-width="2" stroke-miterlimit="10"/>
<path d="M1262.33 353.162L3037.34 1186" stroke="#5BD9B8" stroke-width="2" stroke-miterlimit="10"/>
<path d="M1311.93 353.162L3295.79 1186" stroke="#5BD9B8" stroke-width="2" stroke-miterlimit="10"/>
<path d="M1361.54 353.162L3554.25 1186" stroke="#5BD9B8" stroke-width="2" stroke-miterlimit="10"/>
<path d="M1361.53 353.162H319.225" stroke="#5BD9B8" stroke-width="2" stroke-miterlimit="10"/>
<path d="M1390.78 364.786H290.115" stroke="#5BD9B8" stroke-width="2" stroke-miterlimit="10"/>
<path d="M1423.43 376.991H257.473" stroke="#5BD9B8" stroke-width="2" stroke-miterlimit="10"/>
<path d="M1460.17 390.939H220.732" stroke="#5BD9B8" stroke-width="2" stroke-miterlimit="10"/>
<path d="M1501.86 406.631H179.046" stroke="#5BD9B8" stroke-width="2" stroke-miterlimit="10"/>
<path d="M1549.48 424.648H131.281" stroke="#5BD9B8" stroke-width="2" stroke-miterlimit="10"/>
<path d="M1604.59 445.57H76.1699" stroke="#5BD9B8" stroke-width="2" stroke-miterlimit="10"/>
<path d="M1669.03 469.981H11.7334" stroke="#5BD9B8" stroke-width="2" stroke-miterlimit="10"/>
<path d="M1745.33 499.04H-64.5742" stroke="#5BD9B8" stroke-width="2" stroke-miterlimit="10"/>
<path d="M1837.18 533.911H-156.286" stroke="#5BD9B8" stroke-width="2" stroke-miterlimit="10"/>
<path d="M1949.67 576.918H-268.769" stroke="#5BD9B8" stroke-width="2" stroke-miterlimit="10"/>
<path d="M2090.7 630.387H-409.938" stroke="#5BD9B8" stroke-width="2" stroke-miterlimit="10"/>
<path d="M2272.99 699.549H-592.087" stroke="#5BD9B8" stroke-width="2" stroke-miterlimit="10"/>
<path d="M2517.31 791.957H-836.555" stroke="#5BD9B8" stroke-width="2" stroke-miterlimit="10"/>
<path d="M2862.25 923.305H-1181.49" stroke="#5BD9B8" stroke-width="2" stroke-miterlimit="10"/>
<path d="M3554.25 1186H-1873.35" stroke="#5BD9B8" stroke-width="2" stroke-miterlimit="10"/>
<path d="M319.225 353.162L-1873.35 1186" stroke="#5BD9B8" stroke-width="2" stroke-miterlimit="10"/>
<path d="M368.967 353.162L-1614.89 1186" stroke="#5BD9B8" stroke-width="2" stroke-miterlimit="10"/>
<path d="M418.568 353.162L-1356.44 1186" stroke="#5BD9B8" stroke-width="2" stroke-miterlimit="10"/>
<path d="M468.167 353.162L-1097.98 1186" stroke="#5BD9B8" stroke-width="2" stroke-miterlimit="10"/>
<path d="M517.768 353.162L-839.521 1186" stroke="#5BD9B8" stroke-width="2" stroke-miterlimit="10"/>
<path d="M567.508 353.162L-581.065 1186" stroke="#5BD9B8" stroke-width="2" stroke-miterlimit="10"/>
<path d="M617.109 353.162L-322.607 1186" stroke="#5BD9B8" stroke-width="2" stroke-miterlimit="10"/>
<path d="M666.709 353.162L-64.1494 1186" stroke="#5BD9B8" stroke-width="2" stroke-miterlimit="10"/>
<path d="M716.31 353.162L194.309 1186" stroke="#5BD9B8" stroke-width="2" stroke-miterlimit="10"/>
<path d="M765.908 353.162L452.764 1186" stroke="#5BD9B8" stroke-width="2" stroke-miterlimit="10"/>
<path d="M914.85 353.162L1228.14 1186" stroke="#5BD9B8" stroke-width="2" stroke-miterlimit="10"/>
<path d="M1014.19 353.162L1745.05 1186" stroke="#5BD9B8" stroke-width="2" stroke-miterlimit="10"/>
<path d="M1113.39 353.162L2261.96 1186" stroke="#5BD9B8" stroke-width="2" stroke-miterlimit="10"/>
<path d="M1063.79 353.162L2003.51 1186" stroke="#5BD9B8" stroke-width="2" stroke-miterlimit="10"/>
<path d="M964.453 353.162L1486.6 1186" stroke="#5BD9B8" stroke-width="2" stroke-miterlimit="10"/>
<path d="M865.25 353.162L969.679 1186" stroke="#5BD9B8" stroke-width="2" stroke-miterlimit="10"/>
<path d="M815.651 353.162L711.223 1186" stroke="#5BD9B8" stroke-width="2" stroke-miterlimit="10"/>
<path d="M1162.99 353.162L2520.42 1186" stroke="#5BD9B8" stroke-width="2" stroke-miterlimit="10"/>
<path d="M1212.59 353.162L2778.88 1186" stroke="#5BD9B8" stroke-width="2" stroke-miterlimit="10"/>
<path d="M1262.33 353.162L3037.34 1186" stroke="#5BD9B8" stroke-width="2" stroke-miterlimit="10"/>
<path d="M1311.93 353.162L3295.79 1186" stroke="#5BD9B8" stroke-width="2" stroke-miterlimit="10"/>
<path d="M1361.54 353.162L3554.25 1186" stroke="#5BD9B8" stroke-width="2" stroke-miterlimit="10"/>
<path d="M1361.53 353.162H319.225" stroke="#5BD9B8" stroke-width="2" stroke-miterlimit="10"/>
<path d="M1390.78 364.786H290.115" stroke="#5BD9B8" stroke-width="2" stroke-miterlimit="10"/>
<path d="M1423.43 376.991H257.473" stroke="#5BD9B8" stroke-width="2" stroke-miterlimit="10"/>
<path d="M1460.17 390.939H220.732" stroke="#5BD9B8" stroke-width="2" stroke-miterlimit="10"/>
<path d="M1501.86 406.631H179.046" stroke="#5BD9B8" stroke-width="2" stroke-miterlimit="10"/>
<path d="M1549.48 424.648H131.281" stroke="#5BD9B8" stroke-width="2" stroke-miterlimit="10"/>
<path d="M1604.59 445.57H76.1699" stroke="#5BD9B8" stroke-width="2" stroke-miterlimit="10"/>
<path d="M1669.03 469.981H11.7334" stroke="#5BD9B8" stroke-width="2" stroke-miterlimit="10"/>
<path d="M1745.33 499.04H-64.5742" stroke="#5BD9B8" stroke-width="2" stroke-miterlimit="10"/>
<path d="M1837.18 533.911H-156.286" stroke="#5BD9B8" stroke-width="2" stroke-miterlimit="10"/>
<path d="M1949.67 576.918H-268.769" stroke="#5BD9B8" stroke-width="2" stroke-miterlimit="10"/>
<path d="M2090.7 630.387H-409.938" stroke="#5BD9B8" stroke-width="2" stroke-miterlimit="10"/>
<path d="M2272.99 699.549H-592.087" stroke="#5BD9B8" stroke-width="2" stroke-miterlimit="10"/>
<path d="M2517.31 791.957H-836.555" stroke="#5BD9B8" stroke-width="2" stroke-miterlimit="10"/>
<path d="M2862.25 923.305H-1181.49" stroke="#5BD9B8" stroke-width="2" stroke-miterlimit="10"/>
<path d="M3554.25 1186H-1873.35" stroke="#5BD9B8" stroke-width="2" stroke-miterlimit="10"/>
<path d="M319.225 353.162L-1873.35 1186" stroke="#5BD9B8" stroke-width="0.75" stroke-miterlimit="10"/>
<path d="M368.967 353.162L-1614.89 1186" stroke="#5BD9B8" stroke-width="0.75" stroke-miterlimit="10"/>
<path d="M418.568 353.162L-1356.44 1186" stroke="#5BD9B8" stroke-width="0.75" stroke-miterlimit="10"/>
<path d="M468.167 353.162L-1097.98 1186" stroke="#5BD9B8" stroke-width="0.75" stroke-miterlimit="10"/>
<path d="M517.768 353.162L-839.521 1186" stroke="#5BD9B8" stroke-width="0.75" stroke-miterlimit="10"/>
<path d="M567.508 353.162L-581.065 1186" stroke="#5BD9B8" stroke-width="0.75" stroke-miterlimit="10"/>
<path d="M617.109 353.162L-322.607 1186" stroke="#5BD9B8" stroke-width="0.75" stroke-miterlimit="10"/>
<path d="M666.709 353.162L-64.1494 1186" stroke="#5BD9B8" stroke-width="0.75" stroke-miterlimit="10"/>
<path d="M716.31 353.162L194.309 1186" stroke="#5BD9B8" stroke-width="0.75" stroke-miterlimit="10"/>
<path d="M765.908 353.162L452.764 1186" stroke="#5BD9B8" stroke-width="0.75" stroke-miterlimit="10"/>
<path d="M914.85 353.162L1228.14 1186" stroke="#5BD9B8" stroke-width="0.75" stroke-miterlimit="10"/>
<path d="M1014.19 353.162L1745.05 1186" stroke="#5BD9B8" stroke-width="0.75" stroke-miterlimit="10"/>
<path d="M1113.39 353.162L2261.96 1186" stroke="#5BD9B8" stroke-width="0.75" stroke-miterlimit="10"/>
<path d="M1063.79 353.162L2003.51 1186" stroke="#5BD9B8" stroke-width="0.75" stroke-miterlimit="10"/>
<path d="M964.453 353.162L1486.6 1186" stroke="#5BD9B8" stroke-width="0.75" stroke-miterlimit="10"/>
<path d="M865.25 353.162L969.679 1186" stroke="#5BD9B8" stroke-width="0.75" stroke-miterlimit="10"/>
<path d="M815.651 353.162L711.223 1186" stroke="#5BD9B8" stroke-width="0.75" stroke-miterlimit="10"/>
<path d="M1162.99 353.162L2520.42 1186" stroke="#5BD9B8" stroke-width="0.75" stroke-miterlimit="10"/>
<path d="M1212.59 353.162L2778.88 1186" stroke="#5BD9B8" stroke-width="0.75" stroke-miterlimit="10"/>
<path d="M1262.33 353.162L3037.34 1186" stroke="#5BD9B8" stroke-width="0.75" stroke-miterlimit="10"/>
<path d="M1311.93 353.162L3295.79 1186" stroke="#5BD9B8" stroke-width="0.75" stroke-miterlimit="10"/>
<path d="M1361.54 353.162L3554.25 1186" stroke="#5BD9B8" stroke-width="0.75" stroke-miterlimit="10"/>
<path d="M1361.53 353.162H319.225" stroke="#5BD9B8" stroke-width="0.75" stroke-miterlimit="10"/>
<path d="M1390.78 364.786H290.115" stroke="#5BD9B8" stroke-width="0.75" stroke-miterlimit="10"/>
<path d="M1423.43 376.991H257.473" stroke="#5BD9B8" stroke-width="0.75" stroke-miterlimit="10"/>
<path d="M1460.17 390.939H220.732" stroke="#5BD9B8" stroke-width="0.75" stroke-miterlimit="10"/>
<path d="M1501.86 406.631H179.046" stroke="#5BD9B8" stroke-width="0.75" stroke-miterlimit="10"/>
<path d="M1549.48 424.648H131.281" stroke="#5BD9B8" stroke-width="0.75" stroke-miterlimit="10"/>
<path d="M1604.59 445.57H76.1699" stroke="#5BD9B8" stroke-width="0.75" stroke-miterlimit="10"/>
<path d="M1669.03 469.981H11.7334" stroke="#5BD9B8" stroke-width="0.75" stroke-miterlimit="10"/>
<path d="M1745.33 499.04H-64.5742" stroke="#5BD9B8" stroke-width="0.75" stroke-miterlimit="10"/>
<path d="M1837.18 533.911H-156.286" stroke="#5BD9B8" stroke-width="0.75" stroke-miterlimit="10"/>
<path d="M1949.67 576.918H-268.769" stroke="#5BD9B8" stroke-width="0.75" stroke-miterlimit="10"/>
<path d="M2090.7 630.387H-409.938" stroke="#5BD9B8" stroke-width="0.75" stroke-miterlimit="10"/>
<path d="M2272.99 699.549H-592.087" stroke="#5BD9B8" stroke-width="0.75" stroke-miterlimit="10"/>
<path d="M2517.31 791.957H-836.555" stroke="#5BD9B8" stroke-width="0.75" stroke-miterlimit="10"/>
<path d="M2862.25 923.305H-1181.49" stroke="#5BD9B8" stroke-width="0.75" stroke-miterlimit="10"/>
<path d="M3554.25 1186H-1873.35" stroke="#5BD9B8" stroke-width="0.75" stroke-miterlimit="10"/>
</g>
</g>
<defs>
<clipPath id="clip0_6_2">
<rect width="1680" height="3145" fill="white"/>
</clipPath>
</defs>
</svg>
