<svg width="47" height="38" viewBox="0 0 47 38" fill="none" xmlns="http://www.w3.org/2000/svg">
<path d="M39.8854 3.65734C36.7589 2.23426 33.6323 1.16695 30.1584 0.455414C29.811 1.16695 29.1162 2.23426 29.1162 2.9458C25.2949 2.23426 21.8209 2.23426 18.347 2.9458C17.6522 2.23426 17.3048 1.16695 16.9574 0.455414C13.4835 1.16695 10.357 2.23426 7.23043 3.65734C0.977356 12.9073 -0.759614 22.1573 0.282565 31.4073C4.45128 34.6093 8.27261 36.3881 12.0939 37.4554C13.1361 36.0323 13.8309 34.965 14.5257 33.542V33.1862C13.1361 32.8304 12.0939 32.1189 10.7044 31.4073V31.0516C11.0518 30.6958 11.0518 30.6958 11.3991 30.34C19.0418 33.8977 27.7266 33.8977 35.3693 30.34C35.7167 30.6958 35.7167 30.6958 36.0641 31.0516V31.4073C35.0219 32.1189 33.6323 32.8304 32.2427 33.1862C32.2427 33.1862 32.2427 33.1862 32.2427 33.542C32.9375 34.965 33.6323 36.3881 34.6745 37.4554C38.4958 36.3881 42.3171 34.2535 46.4859 31.4073C48.2228 20.7343 45.4437 11.4843 39.8854 3.65734ZM15.5679 25.715C13.1361 25.715 11.3991 23.5804 11.3991 20.7343C11.3991 17.8881 13.1361 15.7535 15.5679 15.7535C17.9996 15.7535 19.7366 17.8881 19.7366 20.7343C20.084 23.5804 17.9996 25.715 15.5679 25.715ZM31.548 25.715C29.1162 25.715 27.3792 23.5804 27.3792 20.7343C27.3792 17.8881 29.1162 15.7535 31.548 15.7535C33.9797 15.7535 35.7167 17.8881 35.7167 20.7343C35.7167 23.5804 33.9797 25.715 31.548 25.715Z" fill="white"/>
</svg>
