<svg width="51" height="51" viewBox="0 0 51 51" fill="none" xmlns="http://www.w3.org/2000/svg">
<path d="M40.3762 25.4992C39.2011 25.4992 38.2512 26.4514 38.2512 27.6242V44.6248C38.2512 45.7957 37.2991 46.7498 36.1263 46.7498H6.37521C5.20203 46.7498 4.25027 45.7957 4.25027 44.6248V14.8737C4.25027 13.7029 5.20203 12.7488 6.37521 12.7488H23.3759C24.551 12.7488 25.5008 11.7966 25.5008 10.6239C25.5008 9.45069 24.551 8.49854 23.3759 8.49854H6.37521C2.86036 8.49854 0 11.3589 0 14.8737V44.6248C0 48.1397 2.86036 51 6.37521 51H36.1263C39.6411 51 42.5015 48.1397 42.5015 44.6248V27.6242C42.5015 26.449 41.5513 25.4992 40.3762 25.4992Z" fill="#3861FB"/>
<path d="M19.9245 23.5633C19.7758 23.7119 19.6758 23.901 19.6334 24.1049L18.131 31.6194C18.061 31.9677 18.1715 32.3268 18.4221 32.5798C18.624 32.7817 18.896 32.8899 19.1746 32.8899C19.2423 32.8899 19.3128 32.8837 19.3828 32.8689L26.895 31.3665C27.1032 31.3237 27.2923 31.2241 27.439 31.0751L44.2525 14.2616L36.7403 6.74976L19.9245 23.5633Z" fill="#3861FB"/>
<path d="M49.4442 1.55401C47.3726 -0.518005 44.0021 -0.518005 41.932 1.55401L38.9911 4.49492L46.5033 12.0071L49.4442 9.06582C50.4473 8.06502 50.9999 6.73037 50.9999 5.31089C50.9999 3.89141 50.4473 2.55676 49.4442 1.55401Z" fill="#3861FB"/>
</svg>
