<svg width="22" height="28" viewBox="0 0 22 28" fill="none" xmlns="http://www.w3.org/2000/svg">
<path d="M19.7222 18.3539L12.277 20.2145C11.8108 20.3314 11.3022 20.3314 10.836 20.2145L3.39078 18.3539C3.22125 18.3114 3.02346 18.3327 2.88219 18.4071C2.59964 18.5453 2.529 18.8217 2.71266 19.0344L10.2003 27.1356C10.3133 27.2526 10.4404 27.3483 10.5958 27.4333C11.3446 27.8373 12.39 27.6991 12.9127 27.1356L20.4004 19.0344C20.4992 18.9174 20.5275 18.7792 20.471 18.6516C20.3862 18.4071 20.0472 18.2795 19.7222 18.3539Z" fill="black"/>
<path d="M12.6946 0.971713C12.5531 0.776779 12.3409 0.614334 12.0862 0.506037C11.2799 0.148658 10.2613 0.365252 9.80862 0.971713L0.811281 13.4475C0.750634 13.5171 0.71671 13.6085 0.701901 13.6996C0.64912 14.0245 0.89561 14.339 1.30642 14.4438L10.2384 16.7425C10.8937 16.9112 11.5811 16.9108 12.2362 16.7415L21.1632 14.4344C21.1659 14.4337 21.1685 14.4357 21.1685 14.4384C21.1685 14.4412 21.171 14.4432 21.1737 14.4425C21.2144 14.4321 21.2551 14.4213 21.2958 14.4005C21.7343 14.2164 21.9041 13.8049 21.6777 13.4583L12.6946 0.971713Z" fill="black"/>
</svg>
