<svg width="96" height="53" viewBox="0 0 96 53" fill="none" xmlns="http://www.w3.org/2000/svg">
<path d="M48 52.9419H38.4064C38.4064 46.755 37.8991 42.1089 36.8847 37.1913C35.4135 39.0837 33.7787 40.8421 31.9993 42.4461C18.5189 54.5805 5.00269 52.9639 4.29456 52.89L0 52.437V1.82414L3.81916 1.02583C4.5253 0.88014 17.962 -2.45081 31.5876 8.66965C33.522 10.249 35.2879 12.0254 36.8568 13.9704C37.8673 9.20052 38.3845 5.86359 38.4064 0L48 0.0359286C47.9602 10.6135 46.4306 17.7983 43.425 25.496C46.4703 33.2756 48 41.8295 48 52.9419ZM9.59364 10.0647V43.2544C14.3795 42.8553 19.0361 41.2327 25.6878 35.1975C28.6052 32.5537 31.0207 29.3219 32.9342 25.502C30.9835 21.6874 28.517 18.5607 25.5346 16.1219C18.8034 10.6335 14.1766 9.91901 9.59364 10.0647Z" fill="#FF7D05"/>
<path d="M96 53H54V1H94.134L79.5668 26.7416L96 53ZM62.2857 44.7205H81.046L69.9281 26.9539L79.9296 9.27947H62.2918L62.2857 44.7205Z" fill="#47F4FF"/>
</svg>
