<svg width="108" height="86" viewBox="0 0 108 86" fill="none" xmlns="http://www.w3.org/2000/svg">
<path d="M108 85.3632H95.7314V23.7312H33.5234V11.52H108V85.3632Z" fill="#FE0000"/>
<path d="M0 0H12.2688V61.5744H74.4768V73.8432H0V0Z" fill="#00F0FF"/>
<path d="M44.7358 43.3427C46.1679 44.4891 46.4066 46.438 45.3325 47.6418C44.2584 48.8455 42.2295 48.9029 40.7974 47.7564L32.2642 40.8205C30.8321 39.6741 30.5934 37.7252 31.6675 36.5214C32.7416 35.3177 34.7705 35.2603 36.2026 36.4068L44.7358 43.3427Z" fill="white"/>
<path d="M60.18 43.3427C58.8433 44.4891 58.6205 46.438 59.623 47.6418C60.6255 48.8455 62.5191 48.9029 63.8558 47.7564L71.82 40.8205C73.1567 39.6741 73.3795 37.7252 72.377 36.5214C71.3745 35.3177 69.4809 35.2603 68.1442 36.4068L60.18 43.3427Z" fill="white"/>
</svg>
