<svg width="47" height="47" viewBox="0 0 47 47" fill="none" xmlns="http://www.w3.org/2000/svg">
<path d="M19.0427 25.7743C20.2929 26.6875 21.8367 27.2202 23.5 27.2202C27.5682 27.2202 31.1101 23.6989 31.1101 19.6101C31.1101 15.4137 27.6964 12 23.5 12C19.3036 12 15.8899 15.4137 15.8899 19.6101C15.8899 22.1432 17.1293 24.3936 19.0427 25.7743Z" fill="white"/>
<path d="M30.1969 26.731C28.4466 28.3834 26.0875 29.3945 23.5 29.3945C20.9126 29.3945 18.5534 28.3834 16.8031 26.731C12.3784 29.1227 9.36694 33.8084 9.36694 39.1789C9.36694 39.7769 9.85617 40.2661 10.4541 40.2661L23.5 43.5638L36.5459 40.2661C37.1439 40.2661 37.6331 39.7769 37.6331 39.1789C37.6331 33.8084 34.6217 29.1227 30.1969 26.731Z" fill="white"/>
<circle cx="23.5" cy="23.5" r="20.5" stroke="white" stroke-width="5"/>
</svg>
