<svg width="44" height="40" viewBox="0 0 44 40" fill="none" xmlns="http://www.w3.org/2000/svg">
<path d="M2.61441 22.5839L2.76817 22.3422L12.0405 7.83683C12.176 7.62446 12.4946 7.64642 12.5971 7.8771C14.1462 11.3487 15.4828 15.6663 14.8566 18.3542C14.5893 19.4602 13.8569 20.9579 13.0329 22.3422C12.9267 22.5436 12.8095 22.7414 12.685 22.9318C12.6264 23.0197 12.5275 23.071 12.4213 23.071H2.88537C2.62902 23.071 2.47889 22.7927 2.61441 22.5839Z" fill="white"/>
<path d="M43.9445 25.2791V27.5752C43.9445 27.707 43.864 27.8242 43.7468 27.8755C43.029 28.1831 40.5718 29.311 39.5501 30.7319C36.9427 34.361 34.9506 39.5501 30.4975 39.5501H11.9199C5.33563 39.5501 0 34.1962 0 27.5898V27.3775C0 27.2017 0.142788 27.0589 0.318582 27.0589H10.6749C10.8799 27.0589 11.03 27.2493 11.0118 27.4507C10.9385 28.1245 11.063 28.813 11.3816 29.4392C11.9968 30.688 13.2712 31.468 14.6481 31.468H19.775V27.4654H14.7067C14.4468 27.4654 14.293 27.165 14.4431 26.9527C14.498 26.8684 14.5603 26.7806 14.6262 26.6817C15.106 26.0006 15.7907 24.9422 16.4719 23.7374C16.937 22.9244 17.3874 22.0565 17.7499 21.185C17.8232 21.0275 17.8817 20.8663 17.9403 20.7088C18.0392 20.4305 18.1418 20.1706 18.215 19.9106C18.2883 19.6908 18.3468 19.4601 18.4054 19.244C18.5776 18.5043 18.6508 17.7206 18.6508 16.9077C18.6508 16.5891 18.6362 16.2558 18.6069 15.9372C18.5922 15.5894 18.5483 15.2414 18.5043 14.8935C18.475 14.5859 18.4201 14.2819 18.3615 13.9634C18.2883 13.4983 18.1857 13.0369 18.0685 12.5718L18.0282 12.396C17.9403 12.0774 17.8671 11.7735 17.7646 11.4549C17.4753 10.4551 17.1421 9.48104 16.7905 8.56921C16.6623 8.20665 16.5158 7.85877 16.3693 7.51088C16.1533 6.98721 15.9335 6.51115 15.7321 6.06069C15.6296 5.8556 15.5417 5.66882 15.4538 5.47842C15.355 5.26234 15.2525 5.04627 15.1499 4.84125C15.0767 4.68378 14.9924 4.53728 14.9338 4.39079L14.3076 3.23358C14.2197 3.07611 14.3662 2.88934 14.5383 2.93696L18.4567 3.99892H18.4677C18.475 3.99892 18.4787 4.00263 18.4823 4.00263L18.9987 4.14542L19.5663 4.3066L19.775 4.36513V2.0361C19.775 0.911833 20.6759 0 21.7892 0C22.3458 0 22.8512 0.227049 23.2137 0.596887C23.5762 0.966796 23.8033 1.47215 23.8033 2.0361V5.4931L24.2208 5.61023C24.2537 5.62128 24.2867 5.63589 24.316 5.65785C24.4186 5.73477 24.565 5.84825 24.7517 5.98748C24.8982 6.1046 25.0557 6.24746 25.2461 6.39396C25.6233 6.69785 26.0738 7.08972 26.5681 7.54018C26.7 7.65367 26.8281 7.77087 26.9453 7.88806C27.5826 8.48132 28.2966 9.17708 28.9778 9.94612C29.1682 10.1622 29.355 10.3819 29.5454 10.6126C29.7358 10.847 29.9372 11.0777 30.113 11.3084C30.3437 11.616 30.5927 11.9346 30.8088 12.2679C30.9113 12.4253 31.0285 12.5865 31.1274 12.7439C31.4057 13.165 31.6511 13.6009 31.8855 14.0366C31.9843 14.238 32.0868 14.4577 32.1747 14.6738C32.4347 15.2561 32.6398 15.8493 32.7716 16.4426C32.8119 16.5708 32.8412 16.7099 32.8559 16.8345V16.8638C32.8998 17.0395 32.9145 17.2263 32.9291 17.4167C32.9877 18.0246 32.9584 18.6325 32.8266 19.244C32.7716 19.5041 32.6984 19.7494 32.6105 20.0094C32.5226 20.2584 32.4347 20.5184 32.3212 20.7638C32.1015 21.2728 31.8415 21.7819 31.5339 22.2579C31.435 22.4337 31.3178 22.6205 31.2006 22.7963C31.0724 22.983 30.9406 23.1588 30.8234 23.3309C30.6623 23.5506 30.4902 23.7813 30.3144 23.9864C30.1569 24.2025 29.9958 24.4186 29.82 24.609C29.5747 24.8982 29.3403 25.1729 29.0949 25.4366C28.9485 25.6087 28.791 25.7845 28.6298 25.942C28.4724 26.1177 28.3113 26.2752 28.1648 26.4216C27.9195 26.667 27.7144 26.8574 27.5422 27.0149L27.1394 27.3848C27.0808 27.4361 27.0039 27.4654 26.9234 27.4654H23.8033V31.468H27.729C28.6079 31.468 29.4429 31.1567 30.1167 30.5854C30.3474 30.384 31.3544 29.5124 32.5446 28.1978C32.5848 28.1538 32.6362 28.1208 32.6948 28.1062L43.538 24.9715C43.7395 24.9129 43.9445 25.0667 43.9445 25.2791Z" fill="white"/>
</svg>
