<svg width="44" height="37" viewBox="0 0 44 37" fill="none" xmlns="http://www.w3.org/2000/svg">
<path d="M44 4.85859C44 5.23232 44 5.60606 44 5.60606C42.5333 7.47475 41.0667 8.9697 39.6 10.0909C39.6 10.0909 39.6 10.4646 39.6 10.8384C39.6 17.5657 37.4 23.1717 33 28.404C28.2333 34.3838 22 37 14.3 37C9.53333 37 4.76667 35.5051 0.366667 32.8889C0 32.8889 0 32.5152 0 32.1414C0 31.7677 0.366667 31.7677 0.733333 31.7677C1.83333 31.7677 2.2 31.7677 2.93333 31.7677C6.23333 31.7677 9.16667 31.0202 11.7333 29.1515C10.2667 28.7778 8.8 28.0303 7.33333 26.9091C5.86667 25.7879 5.5 24.2929 4.76667 22.798C4.76667 22.798 4.76667 22.4242 4.76667 22.0505C5.13333 21.6768 5.5 21.6768 5.5 21.6768C5.5 21.6768 5.5 21.6768 5.86667 21.6768C6.23333 21.6768 6.23333 21.6768 6.23333 21.6768C3.3 20.1818 1.83333 17.1919 1.83333 13.4545C1.83333 13.4545 1.83333 13.0808 2.2 12.7071C2.56667 12.7071 2.56667 12.7071 2.93333 12.7071C3.3 12.7071 3.66667 13.0808 4.4 13.4545C2.93333 11.5859 2.2 9.71717 2.2 7.10101C2.2 5.23232 2.56667 3.73737 3.66667 2.24242C3.66667 1.86869 4.03333 1.86869 4.03333 1.86869C4.03333 1.86869 4.4 1.86869 4.76667 2.24242C8.43333 7.47475 13.9333 10.4646 20.9 11.2121C20.9 11.2121 20.9 10.8384 20.9 10.4646C20.9 10.0909 20.9 10.0909 20.9 9.71717C20.9 7.10101 22 4.85859 23.8333 2.9899C25.6667 1.12121 27.8667 0 30.4333 0C33 0 34.8333 1.12121 36.6667 2.9899C38.5 2.61616 40.3333 1.86869 41.8 1.12121C42.1667 1.12121 42.1667 1.12121 42.5333 1.12121C42.9 1.12121 42.9 1.49495 42.9 1.86869C42.5333 2.9899 41.8 4.11111 41.0667 5.23232L43.2667 4.48485C43.2667 4.48485 43.6333 4.48485 44 4.85859Z" fill="white"/>
</svg>
