<svg width="52" height="31" viewBox="0 0 52 31" fill="none" xmlns="http://www.w3.org/2000/svg">
<path d="M36.806 7.89741L39.8467 11.4558C40.1946 11.8611 40.4972 12.1764 40.6333 12.3716C41.541 13.2725 42.0553 14.4886 42.0553 15.7498C41.9646 17.2362 40.9964 18.2571 40.0887 19.3532L37.9557 21.8305L36.8514 23.1217C36.806 23.1667 36.7909 23.2268 36.7757 23.2868C36.7606 23.3469 36.7757 23.407 36.806 23.452C36.8362 23.5121 36.8665 23.5571 36.927 23.5871C36.9724 23.6172 37.0329 23.6322 37.0934 23.6322H48.1972C49.8916 23.6322 52.0246 25.0435 51.9036 27.1905C51.9036 28.1664 51.4951 29.0973 50.7992 29.7879C50.0882 30.4786 49.1352 30.869 48.1367 30.869H30.7397C29.59 30.869 26.5191 30.9891 25.6568 28.3916C25.4753 27.8511 25.445 27.2656 25.5811 26.7101C25.8383 25.8843 26.2316 25.1036 26.746 24.4129C27.6234 23.1217 28.5613 21.8455 29.4993 20.5993C30.7095 18.9628 31.9348 17.3863 33.1602 15.7197C33.2056 15.6597 33.2207 15.5996 33.2207 15.5246C33.2207 15.4495 33.1904 15.3894 33.1602 15.3294L28.7429 10.1796C28.7126 10.1495 28.6824 10.1195 28.637 10.0895C28.5916 10.0745 28.5462 10.0594 28.5008 10.0594C28.4554 10.0594 28.41 10.0745 28.3647 10.0895C28.3193 10.1045 28.289 10.1345 28.2588 10.1796C27.0788 11.741 21.89 18.6625 20.7856 20.0738C19.6813 21.4701 16.9583 21.5602 15.4455 20.0738L8.53209 13.2875C8.48671 13.2424 8.4262 13.2124 8.36569 13.1974C8.30518 13.1824 8.24466 13.1974 8.18415 13.2124C8.12364 13.2424 8.07826 13.2725 8.048 13.3325C8.01775 13.3776 7.98749 13.4376 8.00262 13.4977V26.5449C8.01774 27.4758 7.74545 28.3766 7.20084 29.1423C6.65624 29.9081 5.89985 30.4786 5.00731 30.7939C4.43245 30.9891 3.82734 31.0491 3.23736 30.959C2.64737 30.869 2.07251 30.6588 1.58842 30.3134C1.0892 29.9681 0.69588 29.5177 0.423579 28.9922C0.151279 28.4667 0 27.8812 0 27.2956V3.8286C0.0453835 2.98781 0.347941 2.17704 0.892543 1.50141C1.43714 0.84079 2.16328 0.360338 2.99531 0.135127C3.70632 -0.0450423 4.46271 -0.0450423 5.17372 0.135127C5.88472 0.33031 6.53522 0.69065 7.06469 1.21614L17.6996 11.6209C17.7298 11.6509 17.7752 11.681 17.8054 11.696C17.8508 11.711 17.8962 11.711 17.9416 11.711C17.987 11.711 18.0324 11.696 18.0626 11.6659C18.108 11.6509 18.1383 11.6209 18.1685 11.5759L25.7173 1.35127C26.0652 0.930874 26.5039 0.600564 27.0032 0.375353C27.5024 0.150142 28.047 0.0150159 28.5916 0.0150159H48.2275C48.7721 0.0150159 49.3016 0.13513 49.7857 0.345328C50.2698 0.570539 50.7085 0.885832 51.0715 1.2762C51.4195 1.66656 51.6918 2.132 51.843 2.64248C51.9943 3.15296 52.0397 3.67846 51.9641 4.20395C51.8279 5.10479 51.359 5.93056 50.6479 6.51611C49.9369 7.10166 49.0293 7.43197 48.0913 7.41696H37.0934C37.0329 7.41696 36.9875 7.43197 36.9421 7.462C36.8968 7.49203 36.8514 7.53708 36.8362 7.58212C36.806 7.62716 36.806 7.68722 36.806 7.73226C36.7606 7.79232 36.7757 7.85237 36.806 7.89741Z" fill="white"/>
</svg>
