<svg width="24" height="20" viewBox="0 0 24 20" fill="none" xmlns="http://www.w3.org/2000/svg">
<path d="M23.4973 14.9994H4.63736C4.42925 14.9994 4.22981 15.0871 4.09107 15.2275L0.362447 18.9994C0.119653 19.245 0.293077 19.666 0.639926 19.666H19.4998C19.7079 19.666 19.9074 19.5783 20.0461 19.4379L23.7747 15.6661C24.0175 15.4204 23.8441 14.9994 23.4973 14.9994Z" fill="black"/>
<path d="M0.639926 5.0006H19.4998C19.7079 5.0006 19.9074 4.91289 20.0461 4.77254L23.7747 1.00064C24.0175 0.755033 23.8441 0.333984 23.4973 0.333984H4.63736C4.43792 0.333984 4.23848 0.421703 4.09107 0.562053L0.362447 4.33394C0.119653 4.57956 0.293077 5.0006 0.639926 5.0006Z" fill="black"/>
<path d="M20.0461 7.89604C19.9074 7.75569 19.7079 7.66797 19.4998 7.66797H0.639926C0.293077 7.66797 0.119653 8.08902 0.362447 8.33463L4.09107 12.1065C4.22981 12.2469 4.42925 12.3346 4.63736 12.3346H23.4973C23.8441 12.3346 24.0175 11.9135 23.7747 11.6679L20.0461 7.89604Z" fill="black"/>
</svg>
