<svg width="42" height="42" viewBox="0 0 42 42" fill="none" xmlns="http://www.w3.org/2000/svg">
<path d="M17.7251 6.22858C17.7251 4.01979 19.5221 2.2228 21.7309 2.2228H23.1172L22.699 1.06033C22.4639 0.406586 21.8478 0 21.1912 0C21.0092 0 20.8242 0.031245 20.6432 0.0970999L6.63482 5.19573C5.80202 5.49888 5.37341 6.42045 5.67833 7.25261L6.41851 9.27296H17.7251V6.22858Z" fill="white"/>
<path d="M21.7312 4.62625C20.8463 4.62625 20.1289 5.34361 20.1289 6.22856V9.27295H34.1491V6.22856C34.1491 5.34361 33.4318 4.62625 32.5468 4.62625H21.7312Z" fill="white"/>
<path d="M38.3944 32.3863H32.7863C29.4731 32.3863 26.7776 29.6908 26.7776 26.3776C26.7776 23.0644 29.4731 20.3689 32.7863 20.3689H38.3944V14.881C38.3944 13.1112 36.9596 11.6764 35.1898 11.6764H4.18509C2.41526 11.6764 0.980469 13.1112 0.980469 14.881V37.8145C0.980469 39.5843 2.41526 41.0191 4.18509 41.0191H35.1898C36.9596 41.0191 38.3944 39.5843 38.3944 37.8145V32.3863Z" fill="white"/>
<path d="M40.7984 22.7724H32.7868C30.7989 22.7724 29.1816 24.3897 29.1816 26.3776C29.1816 28.3655 30.7989 29.9828 32.7868 29.9828H40.7984C41.461 29.9828 42.0001 29.4437 42.0001 28.7811V23.9741C42.0001 23.3115 41.461 22.7724 40.7984 22.7724ZM32.7868 27.5793C32.1232 27.5793 31.5851 27.0413 31.5851 26.3776C31.5851 25.7139 32.1232 25.1759 32.7868 25.1759C33.4505 25.1759 33.9886 25.7139 33.9886 26.3776C33.9886 27.0413 33.4505 27.5793 32.7868 27.5793Z" fill="white"/>
</svg>
